Coordinates
version=1
nRows=13
nColumns=40
inDegrees=yes

Units are S.I. units (second, meters, Newtons, ...)
If the header above contains a line with 'inDegrees', this indicates whether rotational values are in degrees (yes) or radians (no).

endheader
time	pelvis_tilt	pelvis_list	pelvis_rotation	pelvis_tx	pelvis_ty	pelvis_tz	hip_flexion_r	hip_adduction_r	hip_rotation_r	knee_angle_r	knee_angle_r_beta	ankle_angle_r	subtalar_angle_r	mtp_angle_r	hip_flexion_l	hip_adduction_l	hip_rotation_l	knee_angle_l	knee_angle_l_beta	ankle_angle_l	subtalar_angle_l	mtp_angle_l	lumbar_extension	lumbar_bending	lumbar_rotation	arm_flex_r	arm_add_r	arm_rot_r	elbow_flex_r	pro_sup_r	wrist_flex_r	wrist_dev_r	arm_flex_l	arm_add_l	arm_rot_l	elbow_flex_l	pro_sup_l	wrist_flex_l	wrist_dev_l
      5.75000000	     12.77294642	     -9.73707847	     -1.62179108	     -0.24456011	      1.07449078	     -1.04579780	     48.64437288	     -0.34227943	     -6.45809527	     22.67913548	      0.39582559	     -4.98984817	      0.00000000	      0.00000000	     -3.58582323	     -4.98625142	    -12.66320681	     25.69440297	      0.44845193	     10.83749608	      0.00000000	      0.00000000	    -16.06729334	      7.31535146	      0.07232435	     89.26317753	     -8.77856802	     53.58976851	     25.38782708	     85.88085067	      0.00000000	      0.00000000	     89.58386507	    -15.28764117	     56.35071535	     26.38096681	     84.92550117	      0.00000000	      0.00000000
      5.75500000	     12.77780711	     -9.73278338	     -1.60750296	     -0.24465878	      1.07439749	     -1.04588422	     48.59637414	     -0.36031785	     -6.48695026	     22.57198300	      0.39395542	     -4.97800792	      0.00000000	      0.00000000	     -3.52509962	     -5.00367731	    -12.66321690	     25.78205636	      0.44998177	     10.95842861	      0.00000000	      0.00000000	    -16.09465770	      7.30687569	      0.04641403	     89.25695483	     -8.82668924	     53.71273740	     25.35128655	     85.99652960	      0.00000000	      0.00000000	     89.57620335	    -15.29945633	     56.30159315	     26.43861297	     84.99129896	      0.00000000	      0.00000000
      5.76000000	     12.77124102	     -9.72868704	     -1.59486821	     -0.24478181	      1.07418376	     -1.04591053	     48.61124398	     -0.36996715	     -6.48345016	     22.50683047	      0.39281830	     -4.95333756	      0.00000000	      0.00000000	     -3.42263760	     -5.06142972	    -12.75485736	     25.98924681	      0.45359793	     10.91382687	      0.00000000	      0.00000000	    -16.10459120	      7.29407965	      0.00833293	     89.25009021	     -8.77318793	     53.69696244	     25.29024112	     85.98508152	      0.00000000	      0.00000000	     89.58745539	    -15.31224000	     56.30248366	     26.43463554	     84.94198134	      0.00000000	      0.00000000
      5.76500000	     12.79142693	     -9.72812121	     -1.59838655	     -0.24481426	      1.07406510	     -1.04587885	     48.58098976	     -0.36251257	     -6.44099829	     22.46652769	      0.39211488	     -4.92027547	      0.00000000	      0.00000000	     -3.36983371	     -5.10126526	    -12.81817543	     26.12711954	      0.45600426	     10.97617826	      0.00000000	      0.00000000	    -16.14116182	      7.27017899	     -0.00123792	     89.23304657	     -8.74954322	     53.61056098	     25.27773955	     86.09152035	      0.00000000	      0.00000000	     89.59304669	    -15.29604029	     56.30791141	     26.39364284	     84.71503757	      0.00000000	      0.00000000
      5.77000000	     12.76494897	     -9.70988582	     -1.55876360	     -0.24495391	      1.07380551	     -1.04601178	     48.61461623	     -0.41401811	     -6.47342165	     22.43817036	      0.39161995	     -4.87677995	      0.00000000	      0.00000000	     -3.22527276	     -5.12236358	    -12.81492363	     26.33782148	      0.45968170	     10.95818442	      0.00000000	      0.00000000	    -16.13198891	      7.26921315	     -0.03741246	     89.25644151	     -8.76405105	     53.71041753	     25.26279168	     86.01063614	      0.00000000	      0.00000000	     89.59158409	    -15.29155709	     56.19177204	     26.45777687	     85.01669307	      0.00000000	      0.00000000
      5.77500000	     12.74531775	     -9.72207210	     -1.53593019	     -0.24507095	      1.07356940	     -1.04602741	     48.63434786	     -0.42524109	     -6.50941797	     22.41048583	      0.39113676	     -4.88112046	      0.00000000	      0.00000000	     -3.07919807	     -5.17489021	    -12.77035516	     26.55984794	      0.46355680	     11.16483196	      0.00000000	      0.00000000	    -16.12841919	      7.27933586	     -0.06118826	     89.25122083	     -8.76400604	     53.71674485	     25.26557865	     86.12185763	      0.00000000	      0.00000000	     89.59595874	    -15.29484634	     56.21409489	     26.48478472	     84.85492192	      0.00000000	      0.00000000
      5.78000000	     12.74983846	     -9.72319352	     -1.51354372	     -0.24513947	      1.07338786	     -1.04607999	     48.62530385	     -0.45286639	     -6.53961369	     22.41112813	      0.39114797	     -4.86704672	      0.00000000	      0.00000000	     -2.98893118	     -5.21394875	    -12.78396306	     26.73421001	      0.46659999	     11.18852732	      0.00000000	      0.00000000	    -16.14360629	      7.27667512	     -0.07455048	     89.25174256	     -8.76459634	     53.74752919	     25.25534719	     86.06226761	      0.00000000	      0.00000000	     89.59972464	    -15.29079555	     56.19626149	     26.51930120	     85.02030811	      0.00000000	      0.00000000
      5.78500000	     12.75787961	     -9.69752017	     -1.49892995	     -0.24524019	      1.07317646	     -1.04611550	     48.61793741	     -0.48073553	     -6.50233620	     22.36779462	      0.39039166	     -4.84267383	      0.00000000	      0.00000000	     -2.90352174	     -5.22862309	    -12.87352257	     26.90006667	      0.46949473	     11.23536215	      0.00000000	      0.00000000	    -16.17074575	      7.24552512	     -0.07429861	     89.25840693	     -8.73571310	     53.56411943	     25.30472993	     85.97002925	      0.00000000	      0.00000000	     89.60757484	    -15.26974049	     56.20344456	     26.53846370	     84.88308879	      0.00000000	      0.00000000
      5.79000000	     12.76168557	     -9.71853566	     -1.50875880	     -0.24530856	      1.07298349	     -1.04607858	     48.61206407	     -0.46189400	     -6.57149076	     22.32793360	      0.38969596	     -4.86078759	      0.00000000	      0.00000000	     -2.79971272	     -5.30181561	    -12.95168617	     27.12052462	      0.47334245	     11.26314211	      0.00000000	      0.00000000	    -16.18019634	      7.24753815	     -0.03718639	     89.26121351	     -8.73364906	     53.47591078	     25.36120739	     85.89559760	      0.00000000	      0.00000000	     89.60862882	    -15.22433828	     56.18315983	     26.53739611	     84.98699546	      0.00000000	      0.00000000
      5.79500000	     12.76877529	     -9.70308806	     -1.50060810	     -0.24543822	      1.07274067	     -1.04610437	     48.60471985	     -0.48265397	     -6.57262397	     22.27226560	      0.38872437	     -4.86905492	      0.00000000	      0.00000000	     -2.69405675	     -5.31624115	    -12.93401594	     27.32458640	      0.47690400	     11.20543906	      0.00000000	      0.00000000	    -16.20312493	      7.22746245	     -0.04885521	     89.26332152	     -8.72558550	     53.56641258	     25.29216184	     85.90940012	      0.00000000	      0.00000000	     89.61184857	    -15.22809013	     56.13947407	     26.57917004	     85.00608285	      0.00000000	      0.00000000
      5.80000000	     12.75973091	     -9.68283804	     -1.52178175	     -0.24552314	      1.07245415	     -1.04608882	     48.62233849	     -0.47980193	     -6.53584817	     22.24208216	      0.38819757	     -4.89829759	      0.00000000	      0.00000000	     -2.57775982	     -5.32679955	    -12.98789319	     27.53380951	      0.48055563	     11.35552506	      0.00000000	      0.00000000	    -16.20265289	      7.18692909	     -0.01746874	     89.25047921	     -8.77219487	     53.63776657	     25.24446623	     86.00911764	      0.00000000	      0.00000000	     89.61561028	    -15.20599085	     56.18730484	     26.61297850	     85.00573595	      0.00000000	      0.00000000
      5.80500000	     12.76257558	     -9.68827233	     -1.50806231	     -0.24564752	      1.07218324	     -1.04615405	     48.61636363	     -0.49399535	     -6.56910906	     22.17840287	      0.38708615	     -4.94740527	      0.00000000	      0.00000000	     -2.46521498	     -5.36352387	    -12.96299335	     27.73583360	      0.48408162	     11.42751940	      0.00000000	      0.00000000	    -16.21046280	      7.19453174	     -0.03472652	     89.25269211	     -8.77245913	     53.82139319	     25.13213620	     86.10497530	      0.00000000	      0.00000000	     89.61857023	    -15.18231235	     56.14240545	     26.57025804	     84.89164116	      0.00000000	      0.00000000
      5.81000000	     12.81080435	     -9.68904859	     -1.51040247	     -0.24570123	      1.07201904	     -1.04616558	     48.54874222	     -0.47716528	     -6.50258464	     22.09956632	      0.38571020	     -4.96514196	      0.00000000	      0.00000000	     -2.42738173	     -5.39185474	    -12.99746258	     27.91434983	      0.48719731	     11.45949638	      0.00000000	      0.00000000	    -16.28924583	      7.18847920	     -0.02983067	     89.25342200	     -8.72858018	     53.64527259	     25.11388980	     86.14961553	      0.00000000	      0.00000000	     89.63047605	    -15.17773100	     56.14374924	     26.62208176	     84.80060371	      0.00000000	      0.00000000
